<svg width="1200" height="628" viewBox="0 0 1200 628" fill="none" xmlns="http://www.w3.org/2000/svg">
<rect width="1200" height="628" fill="url(#paint0_linear_196_40)"/>
<path fill-rule="evenodd" clip-rule="evenodd" d="M135 314.018C135 359.797 172.238 397.036 218.018 397.036C263.797 397.036 301.036 359.797 301.036 314.018C301.036 268.238 263.797 231 218.018 231C172.238 231 135 268.238 135 314.018ZM140.195 314.018C140.195 271.122 175.094 236.223 218.018 236.223C229.169 236.223 239.782 238.579 249.383 242.822C207.482 309.554 190.887 360.58 184.278 384.14C158.213 371.547 140.195 344.839 140.195 314.018ZM197.978 389.225C205.819 346.694 245.577 261.761 253.619 244.849C278.669 257.783 295.84 283.921 295.84 314.018C295.84 356.941 260.941 391.84 218.018 391.84C211.091 391.84 204.374 390.931 197.978 389.225ZM200.908 321.934C200.908 321.934 170.035 310.917 166.499 272.971C166.499 272.971 196.475 280.044 200.908 321.934ZM277.887 331.236C249.217 356.316 219.215 343.068 219.215 343.068C250.687 316.192 276.911 330.697 277.861 331.222C277.878 331.231 277.887 331.236 277.887 331.236ZM238.228 292.42C238.228 292.42 257.378 300.88 275.684 284.858C275.684 284.858 258.683 274.93 238.228 292.42ZM205.26 246.505C207.246 266.824 223.621 272.645 223.621 272.645C221.189 250.6 205.79 246.641 205.274 246.509C205.264 246.506 205.26 246.505 205.26 246.505ZM233.876 364.775C233.876 370.168 229.504 374.541 224.111 374.541C218.718 374.541 214.346 370.168 214.346 364.775C214.346 359.382 218.718 355.01 224.111 355.01C229.504 355.01 233.876 359.382 233.876 364.775ZM194.19 333.032C194.19 338.425 189.818 342.797 184.424 342.797C179.031 342.797 174.659 338.425 174.659 333.032C174.659 327.638 179.031 323.267 184.424 323.267C189.818 323.267 194.19 327.638 194.19 333.032Z" fill="white"/>
<path d="M1054.28 323.926C1054.07 318.487 1052.79 313.817 1050.43 309.917C1048.17 305.914 1045.04 302.835 1041.04 300.68C1037.14 298.524 1032.52 297.447 1027.18 297.447C1021.54 297.447 1016.56 298.73 1012.25 301.296C1008.04 303.861 1004.71 307.454 1002.24 312.072C999.779 316.691 998.548 322.079 998.548 328.237C998.548 334.6 999.779 340.194 1002.24 345.018C1004.81 349.739 1008.35 353.434 1012.87 356.102C1017.38 358.771 1022.51 360.105 1028.26 360.105C1038.52 360.105 1046.89 356.615 1053.35 349.636L1059.97 356.256C1056.07 360.464 1051.35 363.748 1045.81 366.109C1040.27 368.367 1034.16 369.496 1027.49 369.496C1019.49 369.496 1012.4 367.802 1006.25 364.415C1000.19 360.926 995.469 356.102 992.082 349.944C988.695 343.786 987.001 336.704 987.001 328.699C987.001 320.693 988.695 313.663 992.082 307.608C995.469 301.45 1000.19 296.677 1006.25 293.29C1012.4 289.801 1019.38 288.004 1027.18 287.902C1035.91 287.902 1043.14 289.801 1048.89 293.598C1054.64 297.293 1058.85 302.527 1061.51 309.301C1064.28 315.972 1065.41 323.824 1064.9 332.855H996.392V323.926H1054.28Z" fill="white"/>
<path d="M983.604 298.832C977.548 298.73 972.314 300.013 967.901 302.681C963.59 305.247 960.254 308.89 957.894 313.612C955.533 318.23 954.353 323.67 954.353 329.93L950.196 329.469C950.196 320.642 951.531 313.15 954.199 306.992C956.868 300.834 960.716 296.113 965.745 292.828C970.774 289.544 976.727 287.902 983.604 287.902V298.832ZM942.499 288.21H954.507V369.188H942.499V288.21Z" fill="white"/>
<path d="M883.205 331.162C876.431 331.162 871.299 332.291 867.81 334.549C864.32 336.807 862.576 340.245 862.576 344.864C862.576 349.482 864.218 353.228 867.502 356.102C870.889 358.873 875.456 360.259 881.204 360.259C885.925 360.259 890.184 359.489 893.982 357.949C897.779 356.41 900.909 354.203 903.372 351.33C905.938 348.456 907.683 344.966 908.607 340.861L911.686 350.56C908.812 357.026 904.553 361.85 898.908 365.031C893.263 368.11 886.592 369.65 878.894 369.65C873.352 369.65 868.477 368.572 864.269 366.417C860.164 364.261 856.982 361.336 854.724 357.642C852.466 353.947 851.337 349.79 851.337 345.172C851.337 338.192 854.006 332.65 859.343 328.545C864.68 324.44 872.12 322.336 881.665 322.233H910.454V331.162H883.205ZM908.299 316.845C908.299 310.687 906.452 305.914 902.757 302.527C899.165 299.14 893.776 297.447 886.592 297.447C882.076 297.447 877.714 298.268 873.506 299.91C869.298 301.552 865.09 303.861 860.882 306.838L855.802 298.986C859.291 296.626 862.678 294.624 865.962 292.982C869.247 291.34 872.736 290.108 876.431 289.287C880.126 288.364 884.283 287.902 888.901 287.902C898.959 287.902 906.657 290.416 911.994 295.445C917.331 300.372 920.05 307.146 920.153 315.767L920.307 369.188H908.607L908.299 316.845Z" fill="white"/>
<path d="M834.834 284.515C830.729 280.307 825.854 277.022 820.209 274.662C814.667 272.199 808.919 270.967 802.966 270.967C796.911 270.967 791.215 272.096 785.878 274.354C780.541 276.612 775.871 279.794 771.868 283.899C767.866 287.902 764.735 292.571 762.477 297.908C760.219 303.245 759.091 308.993 759.091 315.151C759.091 321.206 760.219 326.902 762.477 332.239C764.735 337.576 767.866 342.246 771.868 346.249C775.871 350.252 780.541 353.433 785.878 355.794C791.215 358.052 796.911 359.181 802.966 359.181C808.919 359.181 814.615 358.052 820.055 355.794C825.597 353.433 830.524 350.2 834.834 346.095L842.378 353.793C838.888 357.077 834.937 359.951 830.524 362.414C826.213 364.877 821.697 366.776 816.976 368.11C812.255 369.444 807.38 370.111 802.351 370.111C794.551 370.111 787.263 368.726 780.49 365.955C773.818 363.081 767.917 359.13 762.785 354.1C757.756 349.071 753.805 343.221 750.931 336.55C748.057 329.879 746.62 322.746 746.62 315.151C746.62 307.556 748.057 300.474 750.931 293.906C753.805 287.337 757.808 281.538 762.939 276.509C768.071 271.48 774.024 267.58 780.798 264.809C787.571 262.038 794.91 260.652 802.813 260.652C807.739 260.652 812.563 261.268 817.284 262.5C822.005 263.731 826.47 265.527 830.678 267.888C834.886 270.146 838.734 272.917 842.224 276.201L834.834 284.515Z" fill="white"/>
<path d="M662.977 331.162C656.203 331.162 651.072 332.291 647.582 334.549C644.092 336.807 642.348 340.245 642.348 344.864C642.348 349.482 643.99 353.228 647.274 356.102C650.661 358.873 655.228 360.259 660.976 360.259C665.697 360.259 669.956 359.489 673.754 357.949C677.551 356.41 680.681 354.203 683.145 351.33C685.711 348.456 687.455 344.966 688.379 340.861L691.458 350.56C688.584 357.026 684.325 361.85 678.68 365.031C673.035 368.11 666.364 369.65 658.666 369.65C653.124 369.65 648.249 368.572 644.041 366.417C639.936 364.261 636.754 361.336 634.496 357.642C632.238 353.947 631.109 349.79 631.109 345.172C631.109 338.192 633.778 332.65 639.115 328.545C644.452 324.44 651.893 322.336 661.438 322.233H690.226V331.162H662.977ZM688.071 316.845C688.071 310.687 686.224 305.914 682.529 302.527C678.937 299.14 673.548 297.447 666.364 297.447C661.848 297.447 657.486 298.268 653.278 299.91C649.07 301.552 644.862 303.861 640.654 306.838L635.574 298.986C639.063 296.626 642.45 294.624 645.735 292.982C649.019 291.34 652.508 290.108 656.203 289.287C659.898 288.364 664.055 287.902 668.673 287.902C678.731 287.902 686.429 290.416 691.766 295.445C697.103 300.372 699.823 307.146 699.925 315.767L700.079 369.188H688.379L688.071 316.845Z" fill="white"/>
<path d="M554.08 288.209H566.704L592.567 357.795L618.277 288.209H630.439L598.572 369.188H586.102L554.08 288.209Z" fill="white"/>
<path d="M543.721 323.926C543.515 318.487 542.232 313.817 539.872 309.917C537.614 305.914 534.484 302.835 530.481 300.68C526.581 298.524 521.962 297.447 516.625 297.447C510.98 297.447 506.003 298.73 501.692 301.296C497.484 303.861 494.148 307.454 491.685 312.072C489.222 316.691 487.99 322.079 487.99 328.237C487.99 334.6 489.222 340.194 491.685 345.018C494.251 349.739 497.792 353.434 502.308 356.102C506.824 358.771 511.955 360.105 517.703 360.105C527.966 360.105 536.331 356.615 542.797 349.636L549.417 356.256C545.517 360.464 540.796 363.748 535.253 366.109C529.711 368.367 523.604 369.496 516.933 369.496C508.928 369.496 501.846 367.802 495.688 364.415C489.633 360.926 484.911 356.102 481.524 349.944C478.138 343.786 476.444 336.704 476.444 328.699C476.444 320.693 478.138 313.663 481.524 307.608C484.911 301.45 489.633 296.677 495.688 293.29C501.846 289.801 508.825 288.004 516.625 287.902C525.349 287.902 532.585 289.801 538.332 293.598C544.08 297.293 548.288 302.527 550.956 309.301C553.727 315.972 554.856 323.824 554.343 332.855H485.835V323.926H543.721Z" fill="white"/>
<path d="M447.294 254.956H459.303V369.188H447.294V254.956Z" fill="white"/>
<path d="M352.558 261.422H425.685V272.199H364.874V309.147H419.219V319.77H364.874V358.565H427.686V369.188H352.558V261.422Z" fill="white"/>
<defs>
<linearGradient id="paint0_linear_196_40" x1="83.0001" y1="-5.18612e-05" x2="984.614" y2="695.874" gradientUnits="userSpaceOnUse">
<stop stop-color="#83C5BE"/>
<stop offset="1" stop-color="#006D77"/>
</linearGradient>
</defs>
</svg>
