<svg baseProfile="tiny-ps" version="1.2" width="1023" height="1023" viewBox="0 0 1023 1023" fill="none" xmlns="http://www.w3.org/2000/svg">
  <title>Brand Logo</title>
<path fill-rule="evenodd" clip-rule="evenodd" d="M0 511.5C0 793.563 229.437 1023 511.5 1023C793.563 1023 1023 793.563 1023 511.5C1023 229.437 793.563 0 511.5 0C229.437 0 0 229.437 0 511.5ZM32.0108 511.5C32.0108 247.203 247.035 32.1792 511.5 32.1792C580.207 32.1792 645.596 46.6992 704.748 72.8362C446.586 483.995 344.336 798.385 303.62 943.543C143.021 865.954 32.0108 701.402 32.0108 511.5ZM388.03 974.877C436.341 712.83 681.298 189.526 730.849 85.3275C885.191 165.018 990.989 326.064 990.989 511.5C990.989 775.965 775.965 990.989 511.5 990.989C468.824 990.989 427.435 985.386 388.03 974.877ZM406.082 560.271C406.082 560.271 215.863 492.394 194.075 258.6C194.075 258.6 378.766 302.174 406.082 560.271ZM880.376 617.588C703.73 772.11 518.875 690.49 518.875 690.49C712.785 524.895 874.362 614.264 880.212 617.499C880.318 617.558 880.373 617.588 880.376 617.588ZM636.024 378.43C636.024 378.43 754.009 430.551 866.801 331.838C866.801 331.838 762.054 270.665 636.024 378.43ZM432.897 95.5314C445.131 220.723 546.023 256.589 546.023 256.589C531.041 120.76 436.16 96.371 432.979 95.5532C432.922 95.5385 432.894 95.5314 432.897 95.5314ZM609.206 824.234C609.206 857.463 582.271 884.4 549.04 884.4C515.812 884.4 488.874 857.463 488.874 824.234C488.874 791.003 515.812 764.065 549.04 764.065C582.271 764.065 609.206 791.003 609.206 824.234ZM364.686 628.65C364.686 661.879 337.749 688.816 304.52 688.816C271.289 688.816 244.354 661.879 244.354 628.65C244.354 595.419 271.292 568.484 304.52 568.484C337.749 568.484 364.686 595.419 364.686 628.65Z" fill="#11999E"/>
</svg>
